<?xml version="1.0" encoding="UTF-8"?>
<svg id="Ebene_2" data-name="Ebene 2" xmlns="http://www.w3.org/2000/svg" viewBox="0 0 602.24 111.32">
  <g id="Ebene_1-2" data-name="Ebene 1">
    <g>
      <path d="M96.36,25.98c0,3.33-.5,6.49-1.51,9.47-1.01,2.99-2.49,5.61-4.45,7.87-1.96,2.26-4.4,4.06-7.3,5.39-2.9,1.34-6.27,2-10.09,2h-20.58v-.59c.96,0,1.68-.23,2.18-.69.49-.46.87-1.04,1.11-1.73.25-.69.39-1.43.42-2.2.03-.77.05-1.46.05-2.05V8.51c0-.59-.02-1.28-.05-2.05-.03-.77-.17-1.51-.42-2.2-.25-.69-.62-1.27-1.11-1.73-.49-.46-1.22-.69-2.18-.69v-.59h20.58c3.83,0,7.19.67,10.09,2,2.9,1.34,5.34,3.13,7.3,5.39,1.96,2.26,3.45,4.88,4.45,7.87,1.01,2.99,1.51,6.14,1.51,9.48ZM71.82,49.73c3.03,0,5.76-.68,8.16-2.03,2.41-1.35,4.44-3.14,6.09-5.37,1.65-2.23,2.91-4.76,3.78-7.59.87-2.84,1.31-5.76,1.31-8.76s-.45-5.93-1.36-8.78c-.91-2.85-2.19-5.38-3.86-7.59-1.67-2.21-3.69-3.99-6.09-5.34-2.39-1.35-5.07-2.03-8.04-2.03h-10.69v47.5h10.69Z"/>
      <path d="M101.3,50.12c.96,0,1.68-.23,2.18-.69.49-.46.87-1.04,1.11-1.73.25-.69.39-1.43.42-2.2.03-.77.05-1.46.05-2.05V8.51c0-.59-.02-1.28-.05-2.05-.03-.77-.17-1.51-.42-2.2-.25-.69-.62-1.27-1.11-1.73-.49-.46-1.22-.69-2.18-.69v-.59h38.59v7.77h-.59c-.76-1.65-1.79-2.93-3.09-3.83-1.3-.91-2.72-1.57-4.26-2-1.53-.43-3.12-.69-4.75-.79-1.63-.1-3.16-.15-4.58-.15h-12.62v18.31h23.45l-1.93,5.44h-.59c-.4-1.25-1.04-2.18-1.93-2.8-.89-.61-2.02-1.04-3.39-1.29-1.37-.25-2.99-.37-4.87-.37h-10.74v28.2h13.01c2.54,0,4.83-.35,6.88-1.04,2.04-.69,3.83-1.56,5.37-2.6,1.53-1.04,2.8-2.17,3.81-3.39,1.01-1.22,1.76-2.38,2.25-3.46h.59l-4.06,11.48h-36.56v-.59Z"/>
      <path d="M143.9,50.12c.96,0,1.68-.23,2.18-.69.49-.46.87-1.04,1.11-1.73.25-.69.39-1.43.42-2.2.03-.77.05-1.46.05-2.05V8.51c0-.59-.02-1.28-.05-2.05-.03-.77-.17-1.51-.42-2.2-.25-.69-.62-1.27-1.11-1.73-.49-.46-1.22-.69-2.18-.69v-.59h12.47v.59c-.92,0-1.64.23-2.15.69-.51.46-.89,1.04-1.14,1.73-.25.69-.39,1.43-.42,2.2-.03.78-.05,1.46-.05,2.05v34.93c0,.59.02,1.28.05,2.05.03.78.17,1.51.42,2.2.25.69.63,1.27,1.14,1.73.51.46,1.23.69,2.15.69v.59h-12.47v-.59Z"/>
      <path d="M167.01,5.2v35.87c0,2.94.63,5.15,1.88,6.63,1.25,1.48,3.3,2.29,6.14,2.42v.59h-14.7v-.59c.96,0,1.77-.23,2.45-.69.68-.46,1.24-1.04,1.68-1.73.45-.69.77-1.43.99-2.2.21-.77.32-1.46.32-2.05V3.51c-.73-.79-1.46-1.27-2.2-1.44-.74-.16-1.64-.25-2.7-.25v-.59h8.02c.46,0,.9.12,1.31.35.41.23.75.53,1.01.89l24.69,39.04c.46.76.96,1.45,1.51,2.08.54.63,1.08,1.22,1.61,1.78V13.61c0-.4-.02-.96-.07-1.71s-.17-1.55-.35-2.42c-.18-.87-.46-1.76-.84-2.67-.38-.91-.92-1.73-1.61-2.47-.69-.74-1.56-1.34-2.6-1.81-1.04-.46-2.3-.69-3.78-.69v-.59h14.25v.59c-.92,0-1.64.23-2.15.69-.51.46-.89,1.04-1.14,1.73-.25.69-.39,1.43-.42,2.2-.03.78-.05,1.46-.05,2.05v37.95c.49.36.99.64,1.48.84.49.2,1.01.3,1.53.3.2,0,.4-.02.59-.05.2-.03.41-.08.64-.15l.35.4-5.89,3.76c-.36.26-.73.4-1.09.4-.46,0-.82-.18-1.09-.54l-1.39-1.83-25.53-40.23-2.87-4.16Z"/>
      <path d="M227.37,50.12c.96,0,1.68-.23,2.18-.69.49-.46.87-1.04,1.11-1.73.25-.69.39-1.43.42-2.2.03-.77.05-1.46.05-2.05V8.51c0-.59-.02-1.28-.05-2.05-.03-.77-.17-1.51-.42-2.2-.25-.69-.62-1.27-1.11-1.73-.49-.46-1.22-.69-2.18-.69v-.59h38.59v7.77h-.59c-.76-1.65-1.79-2.93-3.09-3.83-1.3-.91-2.72-1.57-4.26-2-1.53-.43-3.12-.69-4.75-.79-1.63-.1-3.16-.15-4.58-.15h-12.62v18.31h23.45l-1.93,5.44h-.59c-.4-1.25-1.04-2.18-1.93-2.8-.89-.61-2.02-1.04-3.39-1.29-1.37-.25-2.99-.37-4.87-.37h-10.74v28.2h13.01c2.54,0,4.83-.35,6.88-1.04,2.04-.69,3.83-1.56,5.37-2.6,1.53-1.04,2.8-2.17,3.81-3.39,1.01-1.22,1.76-2.38,2.25-3.46h.59l-4.06,11.48h-36.56v-.59Z"/>
      <path d="M269.97,50.12c.96,0,1.68-.23,2.18-.69.49-.46.87-1.04,1.11-1.73.25-.69.39-1.43.42-2.2.03-.77.05-1.46.05-2.05V8.51c0-.59-.02-1.28-.05-2.05-.03-.77-.17-1.51-.42-2.2-.25-.69-.62-1.27-1.11-1.73-.49-.46-1.22-.69-2.18-.69v-.59h25.73c2.38,0,4.45.37,6.23,1.11s3.28,1.72,4.5,2.92c1.22,1.2,2.14,2.59,2.75,4.16.61,1.57.92,3.18.92,4.82s-.3,3.39-.89,5.02-1.48,3.08-2.67,4.33c-1.19,1.25-2.69,2.27-4.5,3.04-1.81.78-3.96,1.16-6.43,1.16h-2.77c.49.13.92.4,1.29.79.36.4.82,1.01,1.36,1.86.54.84,1.24,1.96,2.1,3.36.86,1.4,2.03,3.18,3.51,5.32,1.32,1.95,2.51,3.71,3.59,5.29,1.07,1.58,2.15,2.85,3.24,3.81.66.59,1.35,1.06,2.08,1.39.73.33,1.5.49,2.33.49v.59h-14.89v-.59c.23,0,.49-.03.77-.1.28-.07.54-.18.77-.35.23-.16.43-.38.59-.64.16-.26.25-.61.25-1.04,0-.36-.21-1-.64-1.91-.43-.91-.98-1.96-1.66-3.17-.68-1.2-1.43-2.48-2.28-3.83-.84-1.35-1.67-2.65-2.5-3.91-.99-1.52-1.81-2.75-2.45-3.69-.64-.94-1.2-1.67-1.68-2.2-.48-.53-.92-.9-1.31-1.11-.4-.21-.86-.34-1.39-.37h-7.22v15.64c0,.59.02,1.28.05,2.05.03.78.17,1.51.42,2.2.25.69.63,1.27,1.14,1.73.51.46,1.23.69,2.15.69v.59h-12.47v-.59ZM278.68,26.77h13.46c2.18,0,4.08-.34,5.71-1.01,1.63-.68,2.99-1.58,4.08-2.72,1.09-1.14,1.91-2.46,2.45-3.96.54-1.5.82-3.06.82-4.68s-.27-3.06-.82-4.53c-.54-1.47-1.37-2.77-2.47-3.91-1.11-1.14-2.48-2.04-4.13-2.72-1.65-.68-3.58-1.01-5.79-1.01h-13.31v24.54Z"/>
      <path d="M315.29,25.98c0-3.59.62-6.97,1.86-10.12,1.24-3.15,2.96-5.9,5.17-8.26,2.21-2.36,4.87-4.21,7.97-5.57,3.1-1.35,6.5-2.03,10.19-2.03,1.98,0,3.7.06,5.17.17,1.47.12,2.7.26,3.69.42,1.19.2,2.21.41,3.07.64l2.67,10.39h-.59c-.76-1.78-1.7-3.31-2.82-4.58-1.12-1.27-2.37-2.33-3.74-3.17-1.37-.84-2.82-1.46-4.35-1.86-1.53-.4-3.11-.59-4.73-.59-2.34,0-4.45.31-6.33.94-1.88.63-3.55,1.48-5,2.55-1.45,1.07-2.69,2.31-3.71,3.71-1.02,1.4-1.86,2.88-2.5,4.43-.64,1.55-1.12,3.13-1.43,4.73-.31,1.6-.47,3.14-.47,4.63,0,3.66.61,7.2,1.83,10.61,1.22,3.41,2.91,6.43,5.07,9.05,2.16,2.62,4.73,4.72,7.72,6.28,2.98,1.57,6.26,2.35,9.82,2.35,2.04,0,3.88-.42,5.52-1.26,1.63-.84,3.08-2,4.33-3.49v-10.24c0-.59-.02-1.28-.05-2.05-.03-.77-.17-1.51-.42-2.2s-.62-1.27-1.11-1.73c-.49-.46-1.22-.69-2.18-.69v-.59h12.47v.59c-.92,0-1.64.23-2.15.69-.51.46-.89,1.04-1.14,1.73-.25.69-.39,1.43-.42,2.2-.03.78-.05,1.46-.05,2.05v9.3c-.76,1.29-1.93,2.44-3.51,3.46-.66.43-1.45.85-2.38,1.26-.92.41-1.98.78-3.17,1.11-1.19.33-2.54.59-4.06.79-1.52.2-3.2.3-5.05.3-3.69,0-7.09-.69-10.19-2.05-3.1-1.37-5.76-3.22-7.97-5.57-2.21-2.34-3.93-5.09-5.17-8.24-1.24-3.15-1.86-6.52-1.86-10.12Z"/>
      <path d="M365.86,50.12c.96,0,1.68-.23,2.18-.69.49-.46.87-1.04,1.11-1.73.25-.69.39-1.43.42-2.2.03-.77.05-1.46.05-2.05V8.51c0-.59-.02-1.28-.05-2.05-.03-.77-.17-1.51-.42-2.2-.25-.69-.62-1.27-1.11-1.73-.49-.46-1.22-.69-2.18-.69v-.59h38.59v7.77h-.59c-.76-1.65-1.79-2.93-3.09-3.83-1.3-.91-2.72-1.57-4.26-2-1.53-.43-3.12-.69-4.75-.79-1.63-.1-3.16-.15-4.58-.15h-12.62v18.31h23.45l-1.93,5.44h-.59c-.4-1.25-1.04-2.18-1.93-2.8-.89-.61-2.02-1.04-3.39-1.29-1.37-.25-2.99-.37-4.87-.37h-10.74v28.2h13.01c2.54,0,4.83-.35,6.88-1.04,2.04-.69,3.83-1.56,5.37-2.6,1.53-1.04,2.8-2.17,3.81-3.39,1.01-1.22,1.76-2.38,2.25-3.46h.59l-4.06,11.48h-36.56v-.59Z"/>
      <path d="M430.08,1.24c3,0,5.55.49,7.64,1.46,2.09.97,3.74,2.21,4.92,3.71,1.19,1.5,1.9,3.16,2.15,4.97.25,1.81.02,3.57-.67,5.27-.69,1.7-1.87,3.22-3.54,4.58-1.67,1.35-3.82,2.33-6.46,2.92,2.18.2,4.08.67,5.71,1.41,1.63.74,3,1.68,4.11,2.82,1.1,1.14,1.93,2.45,2.47,3.93.54,1.48.82,3.08.82,4.8,0,1.81-.35,3.55-1.04,5.2-.69,1.65-1.74,3.1-3.14,4.35-1.4,1.25-3.16,2.24-5.27,2.97-2.11.73-4.57,1.09-7.37,1.09h-21.97v-.59c.96,0,1.68-.23,2.18-.69.49-.46.87-1.04,1.11-1.73.25-.69.39-1.43.42-2.2.03-.77.05-1.46.05-2.05V8.51c0-.59-.02-1.28-.05-2.05-.03-.77-.17-1.51-.42-2.2-.25-.69-.62-1.27-1.11-1.73-.49-.46-1.22-.69-2.18-.69v-.59h21.62ZM425.88,23.85c2.97,0,5.48-.54,7.52-1.61,2.04-1.07,3.61-2.41,4.7-4.01,1.09-1.6,1.7-3.33,1.83-5.2.13-1.86-.22-3.59-1.06-5.2-.84-1.6-2.18-2.94-4.01-4.01-1.83-1.07-4.16-1.61-7-1.61h-10.69v21.62h8.71ZM427.46,49.73c2.31,0,4.37-.35,6.18-1.04,1.81-.69,3.35-1.62,4.6-2.77,1.25-1.15,2.21-2.47,2.87-3.96.66-1.48.99-3.02.99-4.6,0-1.85-.32-3.54-.96-5.07-.64-1.53-1.58-2.85-2.82-3.96-1.24-1.1-2.76-1.96-4.58-2.57-1.81-.61-3.89-.92-6.23-.92h-10.34v24.89h10.29Z"/>
      <path d="M455.41,5.2v35.87c0,2.94.63,5.15,1.88,6.63,1.25,1.48,3.3,2.29,6.14,2.42v.59h-14.7v-.59c.96,0,1.77-.23,2.45-.69.68-.46,1.24-1.04,1.68-1.73.45-.69.77-1.43.99-2.2.21-.77.32-1.46.32-2.05V3.51c-.73-.79-1.46-1.27-2.2-1.44-.74-.16-1.64-.25-2.7-.25v-.59h8.02c.46,0,.9.12,1.31.35.41.23.75.53,1.01.89l24.69,39.04c.46.76.96,1.45,1.51,2.08.54.63,1.08,1.22,1.61,1.78V13.61c0-.4-.02-.96-.07-1.71s-.17-1.55-.35-2.42c-.18-.87-.46-1.76-.84-2.67-.38-.91-.92-1.73-1.61-2.47-.69-.74-1.56-1.34-2.6-1.81-1.04-.46-2.3-.69-3.78-.69v-.59h14.25v.59c-.92,0-1.64.23-2.15.69-.51.46-.89,1.04-1.14,1.73-.25.69-.39,1.43-.42,2.2-.03.78-.05,1.46-.05,2.05v37.95c.49.36.99.64,1.48.84.49.2,1.01.3,1.53.3.2,0,.4-.02.59-.05.2-.03.41-.08.64-.15l.35.4-5.89,3.76c-.36.26-.73.4-1.09.4-.46,0-.82-.18-1.09-.54l-1.39-1.83-25.53-40.23-2.87-4.16Z"/>
      <path d="M497.22,50.12c.96,0,1.68-.23,2.18-.69.49-.46.87-1.04,1.11-1.73.25-.69.39-1.43.42-2.2.03-.77.05-1.46.05-2.05V8.51c0-.59-.02-1.28-.05-2.05-.03-.77-.17-1.51-.42-2.2-.25-.69-.62-1.27-1.11-1.73-.49-.46-1.22-.69-2.18-.69v-.59h12.47v.59c-.92,0-1.64.23-2.15.69-.51.46-.89,1.04-1.14,1.73-.25.69-.39,1.43-.42,2.2-.03.78-.05,1.46-.05,2.05v34.93c0,.59.02,1.28.05,2.05.03.78.17,1.51.42,2.2.25.69.63,1.27,1.14,1.73.51.46,1.23.69,2.15.69v.59h-12.47v-.59Z"/>
      <path d="M516.17,38.3c.89,1.62,2,3.17,3.31,4.65,1.32,1.48,2.8,2.8,4.43,3.96,1.63,1.16,3.38,2.08,5.24,2.77,1.86.69,3.77,1.04,5.71,1.04,2.28,0,4.25-.37,5.91-1.11,1.67-.74,3.03-1.71,4.08-2.92,1.06-1.2,1.84-2.58,2.35-4.13.51-1.55.77-3.12.77-4.7,0-2.04-.48-3.69-1.43-4.95-.96-1.25-2.22-2.28-3.79-3.07-1.57-.79-3.35-1.43-5.34-1.93-2-.49-4.03-.96-6.11-1.41-2.08-.45-4.11-.96-6.11-1.56-2-.59-3.78-1.4-5.34-2.42-1.57-1.02-2.83-2.33-3.78-3.93-.96-1.6-1.43-3.64-1.43-6.11,0-1.81.4-3.49,1.19-5.02.79-1.53,1.97-2.85,3.54-3.96,1.57-1.1,3.52-1.96,5.86-2.57,2.34-.61,5.08-.92,8.21-.92,1.98,0,3.7.06,5.17.17,1.47.12,2.7.26,3.69.42,1.19.2,2.21.41,3.07.64l2.67,10.39h-.59c-.66-1.68-1.54-3.17-2.65-4.45-1.11-1.29-2.35-2.35-3.74-3.19-1.39-.84-2.87-1.48-4.45-1.91-1.58-.43-3.18-.64-4.8-.64-2.54,0-4.69.23-6.46.69-1.77.46-3.2,1.11-4.3,1.93-1.11.82-1.9,1.81-2.4,2.97-.49,1.15-.74,2.41-.74,3.76,0,2.08.48,3.74,1.43,5,.96,1.25,2.22,2.27,3.79,3.04,1.57.78,3.35,1.39,5.34,1.83,2,.45,4.04.89,6.14,1.34,2.09.45,4.14.97,6.14,1.58,2,.61,3.78,1.47,5.34,2.57,1.57,1.11,2.83,2.53,3.78,4.28.96,1.75,1.43,3.98,1.43,6.68,0,1.75-.37,3.51-1.11,5.27-.74,1.76-1.83,3.36-3.27,4.77-1.43,1.42-3.22,2.57-5.34,3.46-2.13.89-4.58,1.34-7.35,1.34-2.14,0-4.12-.16-5.94-.47-1.81-.31-3.48-.77-5-1.36-1.52-.59-2.91-1.3-4.18-2.13-1.27-.82-2.45-1.75-3.54-2.77v-6.93h.59Z"/>
      <path d="M15.73,60.61v.59c-.43,0-.88.08-1.36.25-.48.17-.92.42-1.34.77-.41.35-.75.78-1.01,1.29-.26.51-.4,1.13-.4,1.86s.28,2.05.84,3.96c.56,1.91,1.29,4.14,2.18,6.68.89,2.54,1.87,5.25,2.94,8.14,1.07,2.89,2.13,5.67,3.17,8.36,1.04,2.69,1.99,5.12,2.84,7.3.86,2.18,1.52,3.83,1.98,4.95.49-1.32,1.06-2.83,1.68-4.53.63-1.7,1.29-3.51,1.98-5.44.69-1.93,1.4-3.93,2.13-5.99.73-2.06,1.43-4.08,2.13-6.06-.76-2.08-1.41-3.87-1.95-5.37-.54-1.5-1.02-2.82-1.43-3.96-.41-1.14-.79-2.15-1.14-3.04-.35-.89-.7-1.73-1.06-2.52-.59-1.35-1.2-2.44-1.83-3.27-.63-.82-1.25-1.47-1.86-1.93-.61-.46-1.2-.79-1.76-.99-.56-.2-1.09-.35-1.58-.45v-.59h15.73v.59c-.43,0-.88.08-1.36.25-.48.17-.92.42-1.34.77-.41.35-.75.78-1.01,1.29-.26.51-.4,1.13-.4,1.86s.28,2.05.84,3.96c.56,1.91,1.29,4.14,2.18,6.68.89,2.54,1.87,5.25,2.94,8.14,1.07,2.89,2.13,5.67,3.17,8.36,1.04,2.69,1.99,5.12,2.84,7.3.86,2.18,1.52,3.83,1.98,4.95.66-1.78,1.44-3.89,2.35-6.33.91-2.44,1.84-5.01,2.8-7.72.96-2.7,1.91-5.43,2.87-8.16.96-2.74,1.81-5.28,2.55-7.62.74-2.34,1.34-4.36,1.81-6.06.46-1.7.69-2.86.69-3.49,0-.73-.13-1.34-.4-1.86-.26-.51-.6-.94-1.01-1.29-.41-.35-.86-.6-1.34-.77-.48-.16-.93-.25-1.36-.25v-.59h12.86v.59c-.49.1-1.02.25-1.58.45-.56.2-1.15.53-1.76.99-.61.46-1.23,1.11-1.86,1.93-.63.82-1.24,1.91-1.83,3.27-.4.89-.78,1.82-1.16,2.8-.38.97-.81,2.13-1.29,3.46-.48,1.34-1.05,2.91-1.71,4.73-.66,1.81-1.47,3.99-2.42,6.53-.56,1.52-1.23,3.39-2,5.62-.78,2.23-1.58,4.52-2.4,6.88-.82,2.36-1.62,4.65-2.37,6.88-.76,2.23-1.4,4.08-1.93,5.57-.23.69-.53,1.04-.89,1.04-.3,0-.58-.33-.84-.99-.53-1.25-1.18-2.86-1.95-4.82-.78-1.96-1.61-4.09-2.5-6.38-.89-2.29-1.8-4.63-2.72-7.03-.92-2.39-1.78-4.64-2.57-6.75,0-.03-.03-.12-.1-.25l-.15-.45c-.03-.07-.05-.11-.05-.15s-.02-.07-.05-.1c0,.03-.03.12-.1.25l-.15.45c-.03.07-.05.11-.05.12s-.02.06-.05.12c-.56,1.52-1.23,3.39-2,5.62-.78,2.23-1.58,4.52-2.4,6.88-.82,2.36-1.62,4.65-2.37,6.88-.76,2.23-1.4,4.08-1.93,5.57-.23.69-.53,1.04-.89,1.04-.3,0-.58-.33-.84-.99-.53-1.25-1.18-2.86-1.95-4.82-.78-1.96-1.61-4.09-2.5-6.38-.89-2.29-1.8-4.63-2.72-7.03-.92-2.39-1.78-4.64-2.57-6.75-.96-2.54-1.77-4.72-2.42-6.53-.66-1.81-1.23-3.39-1.71-4.73-.48-1.34-.91-2.49-1.29-3.46-.38-.97-.77-1.9-1.16-2.8-.59-1.35-1.2-2.44-1.83-3.27-.63-.82-1.25-1.47-1.86-1.93-.61-.46-1.2-.79-1.76-.99-.56-.2-1.09-.35-1.58-.45v-.59h15.73Z"/>
      <path d="M53.44,110.09v-.59c.49-.1,1.02-.25,1.58-.45.56-.2,1.15-.53,1.76-.99.61-.46,1.23-1.1,1.86-1.93.63-.82,1.24-1.91,1.83-3.27.4-.89.78-1.82,1.16-2.8.38-.97.81-2.13,1.29-3.46.48-1.34,1.05-2.91,1.71-4.73.66-1.81,1.47-3.99,2.42-6.53.66-1.75,1.34-3.52,2.03-5.32.69-1.8,1.37-3.55,2.03-5.27.66-1.71,1.29-3.35,1.9-4.9.61-1.55,1.16-2.95,1.66-4.21-.43-.59-.94-.98-1.53-1.16-.59-.18-1.47-.27-2.62-.27h-1.83v-.69h.79c.56,0,1.16-.21,1.81-.64.64-.43,1.29-.91,1.93-1.44.64-.53,1.24-1.01,1.78-1.43.54-.43.98-.64,1.31-.64.36,0,.63.12.82.35.18.23.35.53.52.89.3.79.79,2.05,1.48,3.79s1.48,3.73,2.38,5.99c.89,2.26,1.84,4.69,2.84,7.3,1.01,2.61,1.97,5.16,2.89,7.67.96,2.54,1.76,4.72,2.42,6.53.66,1.81,1.23,3.39,1.71,4.73.48,1.34.91,2.49,1.29,3.46.38.97.77,1.91,1.16,2.8.59,1.35,1.2,2.44,1.83,3.27.63.82,1.24,1.47,1.86,1.93.61.46,1.2.79,1.76.99.56.2,1.09.35,1.58.45v.59h-15.73v-.59c.43,0,.88-.07,1.36-.2.48-.13.92-.35,1.34-.64.41-.3.75-.7,1.01-1.21.26-.51.4-1.16.4-1.95,0-.69-.26-1.9-.77-3.61-.51-1.71-1.16-3.74-1.95-6.09h-21.72c-.76,2.34-1.38,4.35-1.86,6.04-.48,1.68-.72,2.85-.72,3.51,0,.92.13,1.66.4,2.2.26.54.6.96,1.01,1.26.41.3.86.49,1.34.57.48.08.93.12,1.36.12v.59h-12.86ZM86.14,94.8c-.59-1.68-1.24-3.44-1.93-5.27-.69-1.83-1.39-3.66-2.08-5.49-.69-1.83-1.39-3.63-2.1-5.39-.71-1.76-1.36-3.41-1.95-4.92-.59-1.52-1.14-2.89-1.63-4.11-.49-1.22-.89-2.19-1.19-2.92v.05c-.63,1.65-1.37,3.61-2.23,5.89-.86,2.28-1.75,4.68-2.67,7.2-.92,2.52-1.85,5.08-2.77,7.67-.92,2.59-1.76,5.02-2.52,7.3h21.08Z"/>
      <path d="M102.81,109.49c.96,0,1.68-.23,2.18-.69.49-.46.87-1.04,1.11-1.73.25-.69.39-1.43.42-2.2.03-.77.05-1.46.05-2.05v-34.93c0-.59-.02-1.28-.05-2.05-.03-.77-.17-1.51-.42-2.2-.25-.69-.62-1.27-1.11-1.73-.49-.46-1.22-.69-2.18-.69v-.59h25.73c2.38,0,4.45.37,6.23,1.11s3.28,1.72,4.5,2.92c1.22,1.2,2.14,2.59,2.75,4.16.61,1.57.92,3.18.92,4.82s-.3,3.39-.89,5.02-1.48,3.08-2.67,4.33c-1.19,1.25-2.69,2.27-4.5,3.04-1.81.78-3.96,1.16-6.43,1.16h-2.77c.49.13.92.4,1.29.79.36.4.82,1.01,1.36,1.86.54.84,1.24,1.96,2.1,3.36.86,1.4,2.03,3.18,3.51,5.32,1.32,1.95,2.51,3.71,3.59,5.29,1.07,1.58,2.15,2.85,3.24,3.81.66.59,1.35,1.06,2.08,1.39.73.33,1.5.49,2.33.49v.59h-14.89v-.59c.23,0,.49-.03.77-.1.28-.07.54-.18.77-.35.23-.16.43-.38.59-.64.16-.26.25-.61.25-1.04,0-.36-.21-1-.64-1.91-.43-.91-.98-1.96-1.66-3.17-.68-1.2-1.43-2.48-2.28-3.83-.84-1.35-1.67-2.65-2.5-3.91-.99-1.52-1.81-2.75-2.45-3.69-.64-.94-1.2-1.67-1.68-2.2-.48-.53-.92-.9-1.31-1.11-.4-.21-.86-.34-1.39-.37h-7.22v15.64c0,.59.02,1.28.05,2.05.03.78.17,1.51.42,2.2.25.69.63,1.27,1.14,1.73.51.46,1.23.69,2.15.69v.59h-12.47v-.59ZM111.52,86.14h13.46c2.18,0,4.08-.34,5.71-1.01,1.63-.68,2.99-1.58,4.08-2.72,1.09-1.14,1.91-2.46,2.45-3.96.54-1.5.82-3.06.82-4.68s-.27-3.06-.82-4.53c-.54-1.47-1.37-2.77-2.47-3.91-1.11-1.14-2.48-2.04-4.13-2.72-1.65-.68-3.58-1.01-5.79-1.01h-13.31v24.54Z"/>
      <path d="M166,61.6v41.22c0,.59.02,1.28.05,2.05.03.78.17,1.51.42,2.2.25.69.63,1.27,1.14,1.73.51.46,1.23.69,2.15.69v.59h-12.47v-.59c.96,0,1.68-.23,2.18-.69.49-.46.87-1.04,1.11-1.73.25-.69.39-1.43.42-2.2.03-.77.05-1.46.05-2.05v-41.22h-4.8c-1.42,0-2.76.13-4.03.4-1.27.26-2.38.68-3.34,1.24-.96.56-1.72,1.26-2.28,2.1-.56.84-.84,1.86-.84,3.04h-.59v-7.77h36.71v7.77h-.59c0-1.19-.28-2.2-.84-3.04-.56-.84-1.32-1.54-2.28-2.1-.96-.56-2.07-.97-3.34-1.24-1.27-.26-2.61-.4-4.03-.4h-4.8Z"/>
      <path d="M183.86,109.49c.96,0,1.68-.23,2.18-.69.49-.46.87-1.04,1.11-1.73.25-.69.39-1.43.42-2.2.03-.77.05-1.46.05-2.05v-34.93c0-.59-.02-1.28-.05-2.05-.03-.77-.17-1.51-.42-2.2-.25-.69-.62-1.27-1.11-1.73-.49-.46-1.22-.69-2.18-.69v-.59h38.59v7.77h-.59c-.76-1.65-1.79-2.93-3.09-3.83-1.3-.91-2.72-1.57-4.26-2-1.53-.43-3.12-.69-4.75-.79-1.63-.1-3.16-.15-4.58-.15h-12.62v18.31h23.45l-1.93,5.44h-.59c-.4-1.25-1.04-2.18-1.93-2.8-.89-.61-2.02-1.04-3.39-1.29-1.37-.25-2.99-.37-4.87-.37h-10.74v28.2h13.01c2.54,0,4.83-.35,6.88-1.04,2.04-.69,3.83-1.56,5.37-2.6,1.53-1.04,2.8-2.17,3.81-3.39,1.01-1.22,1.76-2.38,2.25-3.46h.59l-4.06,11.48h-36.56v-.59Z"/>
      <path d="M245.31,61.6v41.22c0,.59.02,1.28.05,2.05.03.78.17,1.51.42,2.2.25.69.63,1.27,1.14,1.73.51.46,1.23.69,2.15.69v.59h-12.47v-.59c.96,0,1.68-.23,2.18-.69.49-.46.87-1.04,1.11-1.73.25-.69.39-1.43.42-2.2.03-.77.05-1.46.05-2.05v-41.22h-4.8c-1.42,0-2.76.13-4.03.4-1.27.26-2.38.68-3.34,1.24-.96.56-1.72,1.26-2.28,2.1-.56.84-.84,1.86-.84,3.04h-.59v-7.77h36.71v7.77h-.59c0-1.19-.28-2.2-.84-3.04-.56-.84-1.32-1.54-2.28-2.1-.96-.56-2.07-.97-3.34-1.24-1.27-.26-2.61-.4-4.03-.4h-4.8Z"/>
      <path d="M279.75,110.09v-.59c.49-.1,1.02-.25,1.58-.45.56-.2,1.15-.53,1.76-.99.61-.46,1.23-1.1,1.86-1.93.63-.82,1.24-1.91,1.83-3.27.4-.89.78-1.82,1.16-2.8.38-.97.81-2.13,1.29-3.46.48-1.34,1.05-2.91,1.71-4.73.66-1.81,1.47-3.99,2.42-6.53.66-1.75,1.34-3.52,2.03-5.32.69-1.8,1.37-3.55,2.03-5.27.66-1.71,1.29-3.35,1.9-4.9.61-1.55,1.16-2.95,1.66-4.21-.43-.59-.94-.98-1.53-1.16-.59-.18-1.47-.27-2.62-.27h-1.83v-.69h.79c.56,0,1.16-.21,1.81-.64.64-.43,1.29-.91,1.93-1.44.64-.53,1.24-1.01,1.78-1.43.54-.43.98-.64,1.31-.64.36,0,.63.12.82.35.18.23.35.53.52.89.3.79.79,2.05,1.48,3.79s1.48,3.73,2.38,5.99c.89,2.26,1.84,4.69,2.84,7.3,1.01,2.61,1.97,5.16,2.89,7.67.96,2.54,1.76,4.72,2.42,6.53.66,1.81,1.23,3.39,1.71,4.73.48,1.34.91,2.49,1.29,3.46.38.97.77,1.91,1.16,2.8.59,1.35,1.2,2.44,1.83,3.27.63.82,1.24,1.47,1.86,1.93.61.46,1.2.79,1.76.99.56.2,1.09.35,1.58.45v.59h-15.73v-.59c.43,0,.88-.07,1.36-.2.48-.13.92-.35,1.34-.64.41-.3.75-.7,1.01-1.21.26-.51.4-1.16.4-1.95,0-.69-.26-1.9-.77-3.61-.51-1.71-1.16-3.74-1.95-6.09h-21.72c-.76,2.34-1.38,4.35-1.86,6.04-.48,1.68-.72,2.85-.72,3.51,0,.92.13,1.66.4,2.2.26.54.6.96,1.01,1.26.41.3.86.49,1.34.57.48.08.93.12,1.36.12v.59h-12.86ZM312.45,94.8c-.59-1.68-1.24-3.44-1.93-5.27-.69-1.83-1.39-3.66-2.08-5.49-.69-1.83-1.39-3.63-2.1-5.39-.71-1.76-1.36-3.41-1.95-4.92-.59-1.52-1.14-2.89-1.63-4.11-.49-1.22-.89-2.19-1.19-2.92v.05c-.63,1.65-1.37,3.61-2.23,5.89-.86,2.28-1.75,4.68-2.67,7.2-.92,2.52-1.85,5.08-2.77,7.67-.92,2.59-1.76,5.02-2.52,7.3h21.08Z"/>
      <path d="M360,110.09v-5.74c-1.25,1.06-2.56,2.01-3.91,2.87-1.35.86-2.8,1.59-4.35,2.2-1.55.61-3.22,1.08-5.02,1.41-1.8.33-3.77.49-5.91.49-1.88,0-3.58-.3-5.1-.89-1.52-.59-2.82-1.46-3.91-2.6s-1.92-2.52-2.5-4.16c-.58-1.63-.87-3.49-.87-5.57v-30.23c0-.59-.02-1.28-.05-2.05-.03-.77-.17-1.51-.42-2.2-.25-.69-.62-1.27-1.11-1.73-.49-.46-1.22-.69-2.18-.69v-.59h12.47v.59c-.92,0-1.64.23-2.15.69-.51.46-.89,1.04-1.14,1.73-.25.69-.39,1.43-.42,2.2-.03.78-.05,1.46-.05,2.05v28.7c0,1.62.14,3.18.42,4.7.28,1.52.79,2.87,1.53,4.06.74,1.19,1.75,2.14,3.02,2.87,1.27.73,2.89,1.09,4.87,1.09,1.55,0,3.09-.16,4.63-.47,1.53-.31,3.03-.74,4.48-1.29,1.45-.54,2.83-1.19,4.13-1.93,1.3-.74,2.48-1.56,3.54-2.45v-35.28c0-.59-.02-1.28-.05-2.05-.03-.77-.17-1.51-.42-2.2-.25-.69-.62-1.27-1.11-1.73-.49-.46-1.22-.69-2.18-.69v-.59h12.47v.59c-.92,0-1.64.23-2.15.69-.51.46-.89,1.04-1.14,1.73-.25.69-.39,1.43-.42,2.2-.03.78-.05,1.46-.05,2.05v34.93c0,.59.02,1.28.05,2.05.03.78.17,1.51.42,2.2.25.69.63,1.27,1.14,1.73.51.46,1.23.69,2.15.69v.59h-8.71Z"/>
      <path d="M372.66,60.61h38.59v7.77h-.59c0-1.19-.28-2.2-.84-3.04-.56-.84-1.32-1.54-2.28-2.1-.96-.56-2.07-.97-3.34-1.24-1.27-.26-2.61-.4-4.03-.4h-18.8v18.31h25.28l-1.93,5.44h-.59c-.4-1.25-1.04-2.18-1.93-2.8-.89-.61-2.01-1.04-3.36-1.29-1.35-.25-2.97-.37-4.85-.37h-12.62v21.92c0,.59.02,1.28.05,2.05.03.78.17,1.51.42,2.2.25.69.63,1.27,1.14,1.73.51.46,1.23.69,2.15.69v.59h-12.47v-.59c.96,0,1.68-.23,2.18-.69.49-.46.87-1.04,1.11-1.73.25-.69.39-1.43.42-2.2.03-.77.05-1.46.05-2.05v-34.93c0-.59-.02-1.28-.05-2.05-.03-.77-.17-1.51-.42-2.2-.25-.69-.62-1.27-1.11-1.73-.49-.46-1.22-.69-2.18-.69v-.59Z"/>
      <path d="M477.7,85.35c0,3.33-.5,6.49-1.51,9.47-1.01,2.99-2.49,5.61-4.45,7.87-1.96,2.26-4.4,4.06-7.3,5.39-2.9,1.34-6.27,2-10.09,2h-20.58v-.59c.96,0,1.68-.23,2.18-.69.49-.46.87-1.04,1.11-1.73.25-.69.39-1.43.42-2.2.03-.77.05-1.46.05-2.05v-34.93c0-.59-.02-1.28-.05-2.05-.03-.77-.17-1.51-.42-2.2-.25-.69-.62-1.27-1.11-1.73-.49-.46-1.22-.69-2.18-.69v-.59h20.58c3.83,0,7.19.67,10.09,2,2.9,1.34,5.34,3.13,7.3,5.39,1.96,2.26,3.45,4.88,4.45,7.87,1.01,2.99,1.51,6.14,1.51,9.48ZM453.16,109.1c3.03,0,5.76-.68,8.16-2.03,2.41-1.35,4.44-3.14,6.09-5.37,1.65-2.23,2.91-4.76,3.78-7.59.87-2.84,1.31-5.76,1.31-8.76s-.45-5.93-1.36-8.78c-.91-2.85-2.19-5.38-3.86-7.59-1.67-2.21-3.69-3.99-6.09-5.34-2.39-1.35-5.07-2.03-8.04-2.03h-10.69v47.5h10.69Z"/>
      <path d="M482.65,109.49c.96,0,1.68-.23,2.18-.69.49-.46.87-1.04,1.11-1.73.25-.69.39-1.43.42-2.2.03-.77.05-1.46.05-2.05v-34.93c0-.59-.02-1.28-.05-2.05-.03-.77-.17-1.51-.42-2.2-.25-.69-.62-1.27-1.11-1.73-.49-.46-1.22-.69-2.18-.69v-.59h12.47v.59c-.92,0-1.64.23-2.15.69-.51.46-.89,1.04-1.14,1.73-.25.69-.39,1.43-.42,2.2-.03.78-.05,1.46-.05,2.05v34.93c0,.59.02,1.28.05,2.05.03.78.17,1.51.42,2.2.25.69.63,1.27,1.14,1.73.51.46,1.23.69,2.15.69v.59h-12.47v-.59Z"/>
      <path d="M543.41,97.67v6.73c-.76,1.29-1.93,2.44-3.51,3.46-.66.43-1.45.85-2.38,1.26-.92.41-1.98.78-3.17,1.11-1.19.33-2.54.59-4.06.79-1.52.2-3.2.3-5.05.3-3.69,0-7.09-.69-10.19-2.05-3.1-1.37-5.76-3.22-7.97-5.57-2.21-2.34-3.93-5.09-5.17-8.24-1.24-3.15-1.86-6.52-1.86-10.12s.62-6.97,1.86-10.12c1.24-3.15,2.96-5.9,5.17-8.26,2.21-2.36,4.87-4.21,7.97-5.57,3.1-1.35,6.5-2.03,10.19-2.03,1.98,0,3.7.06,5.17.17,1.47.12,2.7.26,3.69.42,1.19.2,2.21.41,3.07.64l2.67,10.39h-.59c-.76-1.78-1.7-3.31-2.82-4.58-1.12-1.27-2.37-2.33-3.74-3.17-1.37-.84-2.82-1.46-4.35-1.86-1.53-.4-3.11-.59-4.73-.59-2.34,0-4.45.31-6.33.94-1.88.63-3.55,1.48-5,2.55-1.45,1.07-2.69,2.31-3.71,3.71-1.02,1.4-1.86,2.88-2.5,4.43-.64,1.55-1.12,3.13-1.43,4.73-.31,1.6-.47,3.14-.47,4.63,0,3.66.61,7.2,1.83,10.61,1.22,3.41,2.91,6.43,5.07,9.05,2.16,2.62,4.73,4.72,7.72,6.28,2.98,1.57,6.26,2.35,9.82,2.35,1.75,0,3.35-.32,4.8-.96,1.45-.64,2.77-1.53,3.96-2.65,1.19-1.12,2.23-2.44,3.14-3.96.91-1.52,1.67-3.13,2.3-4.85h.59Z"/>
      <path d="M547.37,60.61h12.47v.59c-.92,0-1.64.23-2.15.69-.51.46-.89,1.04-1.14,1.73-.25.69-.39,1.43-.42,2.2-.03.78-.05,1.46-.05,2.05v12.02h26.87v-12.02c0-.59-.02-1.28-.05-2.05-.03-.77-.17-1.51-.42-2.2-.25-.69-.62-1.27-1.11-1.73-.49-.46-1.22-.69-2.18-.69v-.59h12.47v.59c-.92,0-1.64.23-2.15.69-.51.46-.89,1.04-1.14,1.73-.25.69-.39,1.43-.42,2.2-.03.78-.05,1.46-.05,2.05v34.93c0,.59.02,1.28.05,2.05.03.78.17,1.51.42,2.2.25.69.63,1.27,1.14,1.73.51.46,1.23.69,2.15.69v.59h-12.47v-.59c.96,0,1.68-.23,2.18-.69.49-.46.87-1.04,1.11-1.73.25-.69.39-1.43.42-2.2.03-.77.05-1.46.05-2.05v-21.92h-26.87v21.92c0,.59.02,1.28.05,2.05.03.78.17,1.51.42,2.2.25.69.63,1.27,1.14,1.73.51.46,1.23.69,2.15.69v.59h-12.47v-.59c.96,0,1.68-.23,2.18-.69.49-.46.87-1.04,1.11-1.73.25-.69.39-1.43.42-2.2.03-.77.05-1.46.05-2.05v-34.93c0-.59-.02-1.28-.05-2.05-.03-.77-.17-1.51-.42-2.2-.25-.69-.62-1.27-1.11-1.73-.49-.46-1.22-.69-2.18-.69v-.59Z"/>
      <path d="M595.61,108.01c0-.92.32-1.71.96-2.35s1.43-.96,2.35-.96,1.71.32,2.35.96c.64.64.96,1.43.96,2.35s-.32,1.71-.96,2.35c-.64.64-1.43.96-2.35.96s-1.71-.32-2.35-.96c-.64-.64-.96-1.43-.96-2.35ZM598.97,102.32c-.49,0-.8-.19-.92-.57-.12-.38-.15-.89-.1-1.53.05-.64.14-1.39.27-2.25.13-.86.2-1.76.2-2.72,0-3.69-.13-7-.4-9.92-.26-2.92-.54-5.62-.84-8.11-.3-2.49-.58-4.84-.84-7.05-.26-2.21-.4-4.44-.4-6.68,0-.49.04-.98.12-1.46.08-.48.24-.92.47-1.31.23-.4.53-.72.89-.96.36-.25.84-.37,1.43-.37s1.07.12,1.43.37c.36.25.66.57.89.96.23.4.39.83.47,1.31.08.48.12.96.12,1.46,0,2.24-.13,4.47-.4,6.68-.26,2.21-.54,4.56-.84,7.05-.3,2.49-.58,5.2-.84,8.11-.26,2.92-.4,6.23-.4,9.92,0,.96.05,1.86.15,2.72.1.86.17,1.61.22,2.25.05.64.03,1.16-.05,1.53-.08.38-.31.57-.67.57Z"/>
    </g>
  </g>
</svg>